<svg width="305" height="156" viewBox="0 0 305 156" fill="none" xmlns="http://www.w3.org/2000/svg">
<g clip-path="url(#clip0_19_452)">
<path d="M68.5737 36.6478C73.4722 43.9626 79.1689 50.6909 85.5636 56.7441L138.218 106.598C139.592 107.903 141.531 108.446 143.382 108.025C146.308 107.361 150.841 106.642 153.955 107.627C156.948 108.567 159.862 111.279 161.68 113.259C162.987 114.698 164.816 115.539 166.756 115.572C186.106 115.937 287.092 117.874 293.609 118.56C293.908 118.593 294.207 118.638 294.484 118.682C299.305 119.523 302.619 123.983 302.497 128.863C302.364 133.964 300.535 143.349 289.43 147.631C276.738 152.509 254.499 153.343 245.5 153.476C243.026 153.512 241.553 153.496 241.553 153.496L117.471 152.401L117.448 152.412C115.132 152.323 115.365 149.313 115.365 149.313C115.875 144.455 110.422 147.388 110.422 147.388C99.3724 153.341 72.164 156.938 53.9106 147.011C35.6463 137.096 32.4551 114.842 32.4551 114.842C32.4551 114.842 24.4198 66.6484 24.3866 62.9633C24.3644 59.2783 20.5963 60.1082 19.211 59.6324C18.2468 59.3115 17.77 57.8286 17.5594 56.9322C17.371 56.1244 17.2053 55.3055 16.9836 54.4977C13.7031 42.3026 6.58756 27.662 3.7947 22.1399C2.86375 20.3029 2.36542 18.2557 2.53166 16.1974C3.04146 9.87854 8.43886 8.49526 8.43886 8.49526L38.3179 2.68548C42.3299 1.91084 46.4079 3.60398 48.6799 6.99025L68.5737 36.6478Z" stroke="black" stroke-width="5" stroke-miterlimit="10"/>
<path d="M240.699 126.523L236.097 126.527L236.102 131.192L240.704 131.187L240.699 126.523Z" fill="white"/>
<path d="M245.309 131.175L240.707 131.18L240.712 135.844L245.314 135.839L245.309 131.175Z" fill="white"/>
<path d="M249.889 126.521L245.287 126.525L245.291 131.19L249.893 131.185L249.889 126.521Z" fill="white"/>
<path d="M254.504 131.175L249.902 131.18L249.907 135.844L254.509 135.839L254.504 131.175Z" fill="white"/>
<path d="M236.118 131.177L231.516 131.182L231.52 135.846L236.122 135.841L236.118 131.177Z" fill="white"/>
<path d="M236.119 126.538L231.517 126.543L231.522 131.207L236.124 131.202L236.119 126.538Z" fill="black"/>
<path d="M245.31 126.519L240.708 126.523L240.712 131.188L245.314 131.183L245.31 126.519Z" fill="black"/>
<path d="M249.903 131.159L245.301 131.164L245.306 135.828L249.908 135.824L249.903 131.159Z" fill="black"/>
<path d="M240.715 131.177L236.113 131.182L236.118 135.846L240.72 135.841L240.715 131.177Z" fill="black"/>
<path d="M254.499 126.501L249.897 126.506L249.902 131.17L254.504 131.165L254.499 126.501Z" fill="black"/>
<path d="M240.717 135.855L236.115 135.859L236.12 140.524L240.722 140.519L240.717 135.855Z" fill="white"/>
<path d="M249.908 135.833L245.306 135.838L245.311 140.502L249.913 140.497L249.908 135.833Z" fill="white"/>
<path d="M236.117 135.833L231.515 135.838L231.519 140.502L236.122 140.497L236.117 135.833Z" fill="black"/>
<path d="M245.33 135.829L240.728 135.834L240.732 140.498L245.334 140.493L245.33 135.829Z" fill="black"/>
<path d="M254.504 135.82L249.902 135.824L249.907 140.488L254.509 140.484L254.504 135.82Z" fill="black"/>
<path d="M245.5 146.532L240.5 146.539L240.512 155.539L245.512 155.532L245.5 146.532Z" fill="black"/>
</g>
<defs>
<clipPath id="clip0_19_452">
<rect width="305" height="156" fill="white"/>
</clipPath>
</defs>
</svg>
