<svg width="277" height="166" viewBox="0 0 277 166" fill="none" xmlns="http://www.w3.org/2000/svg">
<g clip-path="url(#clip0_19_341)">
<path d="M240.878 50.5996C242.715 57.0945 237.499 62.9683 237.499 62.9683L174.15 136.404C168.5 142.5 154.989 138.748 149.294 136.856C147.386 136.22 145.578 135.246 144.094 133.876C142.296 132.216 140.829 130.022 143.118 128.271C147.188 125.165 153.109 124.487 158.762 122.623C164.414 120.759 161.094 115.874 161.094 115.874C161.094 115.874 155.187 106.569 145.14 96.7845C135.093 86.9997 137.438 75.1393 137.679 73.925C138.145 71.6094 139.219 60.5115 139.219 56.3321C139.219 56.0356 139.204 55.7391 139.176 55.4567C138.907 52.2657 137.099 49.4135 134.513 47.5356C123.703 39.7134 76.2508 5.34656 73.8627 3.80753C71.1637 2.07083 68.5774 2.56501 68.5774 2.56501C63.9989 3.07331 59.3508 5.58659 59.3508 5.58659C59.3508 5.58659 51.38 10.1754 49.2038 14.1007C47.0276 18.0259 50.0801 20.2709 50.0801 20.2709L53.726 23.476C55.9728 25.8198 53.6266 27.8672 53.6266 27.8672C53.6266 27.8672 32.0348 49.2017 25.7041 53.7482C19.3734 58.3088 13.6506 60.2291 9.67976 62.4458C5.70895 64.6626 2.57175 67.9524 2.5011 75.0546C2.41631 82.1567 7.27721 85.5454 7.27721 85.5454C21.3517 97.9846 84.7854 128.031 99.7925 135.444C114.8 142.856 114.25 138.974 123.647 154.449C133.044 169.924 141.507 161.861 146.948 157.202C152.388 152.542 162.93 153.15 170.264 157.541C177.598 161.932 181.979 158.571 181.979 158.571C182.798 157.922 183.633 157.329 184.481 156.778C189.949 153.248 196.364 151.498 202.865 151.286C248.211 149.817 261.677 141.473 267.895 138.225C270.806 136.7 272.474 133.989 273.42 131.462C274.438 128.751 274.692 125.828 274.367 122.962C273.138 112.217 268.447 71.5106 267.344 64.7614L267.302 64.5355C265.987 56.5862 262.356 49.1594 256.789 43.328C252.041 38.3297 248.677 36.6354 248.677 36.6354C248.677 36.6354 235.196 29.152 228.611 27.1471C222.026 25.1562 219.625 28.2484 219.625 28.2484C219.625 28.2484 214.509 33.7268 217.575 39.2051C220.642 44.6835 227.509 44.0622 230.151 43.9634C232.794 43.8646 234.716 44.1046 234.716 44.1046C234.716 44.1046 239.041 44.1046 240.878 50.5996Z" stroke="black" stroke-width="5" stroke-linecap="round" stroke-linejoin="round"/>
<path d="M80.7137 42.1125L84.4463 44.8046L87.1746 41.0217L83.4421 38.3296L80.7137 42.1125Z" fill="white"/>
<path d="M79.703 35.6418L83.4355 38.3339L86.1639 34.5509L82.4313 31.8589L79.703 35.6418Z" fill="white"/>
<path d="M73.265 36.7319L76.9976 39.4239L79.7259 35.641L75.9934 32.949L73.265 36.7319Z" fill="white"/>
<path d="M72.2509 30.2553L75.9834 32.9474L78.7117 29.1644L74.9792 26.4724L72.2509 30.2553Z" fill="white"/>
<path d="M87.1537 41.0246L90.8862 43.7167L93.6146 39.9338L89.882 37.2417L87.1537 41.0246Z" fill="white"/>
<path d="M84.4349 44.7827L88.1675 47.4747L90.8958 43.6918L87.1633 40.9998L84.4349 44.7827Z" fill="black"/>
<path d="M76.975 39.4153L80.7075 42.1073L83.4359 38.3244L79.7033 35.6323L76.975 39.4153Z" fill="black"/>
<path d="M75.9711 32.9643L79.7036 35.6563L82.4319 31.8734L78.6994 29.1814L75.9711 32.9643Z" fill="black"/>
<path d="M83.4271 38.3315L87.1597 41.0235L89.888 37.2406L86.1555 34.5486L83.4271 38.3315Z" fill="black"/>
<path d="M69.517 34.0461L73.2495 36.7382L75.9778 32.9552L72.2453 30.2632L69.517 34.0461Z" fill="black"/>
<path d="M86.1664 34.5403L89.8989 37.2323L92.6273 33.4494L88.8947 30.7573L86.1664 34.5403Z" fill="white"/>
<path d="M78.7045 29.1733L82.437 31.8653L85.1653 28.0824L81.4328 25.3904L78.7045 29.1733Z" fill="white"/>
<path d="M89.8817 37.2514L93.6143 39.9435L96.3426 36.1605L92.61 33.4685L89.8817 37.2514Z" fill="black"/>
<path d="M82.413 31.8586L86.1455 34.5507L88.8738 30.7677L85.1413 28.0757L82.413 31.8586Z" fill="black"/>
<path d="M74.9716 26.4914L78.7041 29.1835L81.4324 25.4006L77.6999 22.7085L74.9716 26.4914Z" fill="black"/>
<path d="M88.5448 23.0844L92.6011 26.0078L97.8633 18.7065L93.807 15.783L88.5448 23.0844Z" fill="black"/>
</g>
<defs>
<clipPath id="clip0_19_341">
<rect width="277" height="166" fill="white"/>
</clipPath>
</defs>
</svg>
