<svg width="274" height="239" viewBox="0 0 274 239" fill="none" xmlns="http://www.w3.org/2000/svg">
<g clip-path="url(#clip0_19_524)">
<path d="M27.0454 160.5V9.6656L27 9.6806C27 9.6806 26.9851 3.73058 31.9378 2.67881C34.144 2.21302 35.9448 2.7239 37.2655 3.44511C38.5862 4.16632 39.6366 5.27821 40.402 6.55536C41.5727 8.49362 44.1698 12.1748 48.5672 18.245C50.7734 21.2952 52.5746 24.9764 54.0004 28.6576C57.2272 36.9515 58.7272 45.8164 58.7272 54.7114L58.7726 91.2529C58.7876 93.5518 58.6372 95.8507 58.4721 98.1496C57.4066 113.355 68.062 116.21 68.062 116.21C77.4572 120.026 83.1759 109.298 83.1759 109.298C83.1759 109.298 89.4639 95.9108 91.6401 87.4065C93.6062 79.6985 101.532 78.5416 101.532 78.5416C101.532 78.5416 159.628 66.8819 175.672 62.9753C191.656 59.0688 207.76 61.2324 212.202 61.0221C216.33 60.8267 218.912 57.1155 218.912 57.1155C218.912 57.1155 237.627 31.9782 241.064 26.9747C241.56 26.2685 242.085 25.6224 242.625 25.0365C246.437 20.9195 252.141 18.9062 257.694 19.6574C266.038 20.7693 269.581 27.8011 270.001 31.888C270.541 37.1018 271.307 45.2755 270.871 51.2556C270.436 57.2507 266.773 75.3111 265.963 85.1677C265.197 94.4233 262.466 95.43 262.466 95.43C262.466 95.43 261.146 96.1512 256.628 95.6253C252.486 95.1595 251.57 96.9175 251.57 96.9175C251.57 96.9175 232.795 122.551 229.688 126.623C229.117 127.374 228.697 128.185 228.397 128.996C227.241 132.152 227.872 135.668 229.748 138.447C232.915 143.12 239.578 153.398 240.389 158.191C240.824 160.715 240.179 162.954 239.248 164.742C238.063 167.041 236.141 168.874 233.904 170.151C227.916 173.577 209.651 184.034 203.678 187.881C196.489 192.523 194.793 198.473 194.793 198.473C194.793 198.473 189.15 216.714 185.293 226.451C182.967 232.295 178.314 234.775 174.967 235.826C173.076 236.412 171.08 236.593 169.099 236.457C156.672 235.631 89.4191 231.153 80.2489 230.943C70.1333 230.703 74.2163 220.621 74.2163 220.621C76.5426 213.995 77.7884 184.966 78.0886 177.138C78.1786 174.929 77.6223 172.72 76.3166 170.947C74.8007 168.874 72.0846 166.89 67.2969 167.296C57.7216 168.092 58.0075 177.979 58.0075 177.979L57.9768 209.983C57.9768 209.983 58.6373 216.789 52.9041 222.033C47.1859 227.277 41.6933 226.375 41.6933 226.375C26.5648 225.068 27.0454 210.434 27.0454 210.434V160.5Z" stroke="black" stroke-width="5" stroke-miterlimit="10"/>
<path d="M0.0236511 160.322L0.0283264 164.924L4.69249 164.919L4.68781 160.317L0.0236511 160.322Z" fill="white"/>
<path d="M4.67599 155.712L4.68066 160.314L9.34482 160.31L9.34015 155.708L4.67599 155.712Z" fill="white"/>
<path d="M0.0216675 151.132L0.0263785 155.734L4.69053 155.73L4.68582 151.128L0.0216675 151.132Z" fill="white"/>
<path d="M4.67599 146.517L4.68066 151.119L9.34482 151.114L9.34015 146.512L4.67599 146.517Z" fill="white"/>
<path d="M4.67795 164.904L4.68263 169.506L9.34679 169.501L9.34211 164.899L4.67795 164.904Z" fill="white"/>
<path d="M0.0392456 164.902L0.0439566 169.504L4.70811 169.499L4.7034 164.897L0.0392456 164.902Z" fill="black"/>
<path d="M0.0197449 155.71L0.0244203 160.312L4.68858 160.308L4.68391 155.706L0.0197449 155.71Z" fill="black"/>
<path d="M4.66037 151.119L4.66505 155.721L9.3292 155.716L9.32453 151.114L4.66037 151.119Z" fill="black"/>
<path d="M4.67795 160.306L4.68263 164.908L9.34679 164.903L9.34211 160.301L4.67795 160.306Z" fill="black"/>
<path d="M0.00216675 146.521L0.0068421 151.123L4.671 151.118L4.66633 146.516L0.00216675 146.521Z" fill="black"/>
<path d="M9.35568 160.304L9.36035 164.906L14.0245 164.901L14.0198 160.299L9.35568 160.304Z" fill="white"/>
<path d="M9.3342 151.113L9.33888 155.715L14.003 155.71L13.9983 151.108L9.3342 151.113Z" fill="white"/>
<path d="M9.3342 164.904L9.33888 169.506L14.003 169.501L13.9984 164.899L9.3342 164.904Z" fill="black"/>
<path d="M9.33029 155.691L9.33496 160.293L13.9991 160.288L13.9944 155.686L9.33029 155.691Z" fill="black"/>
<path d="M9.32053 146.517L9.32521 151.119L13.9894 151.114L13.9847 146.512L9.32053 146.517Z" fill="black"/>
<path d="M20.0323 155.52L20.0391 160.52L29.0391 160.507L29.0323 155.507L20.0323 155.52Z" fill="black"/>
</g>
<defs>
<clipPath id="clip0_19_524">
<rect width="274" height="239" fill="white"/>
</clipPath>
</defs>
</svg>
