<svg width="286" height="185" viewBox="0 0 286 185" fill="none" xmlns="http://www.w3.org/2000/svg">
<g clip-path="url(#clip0_19_542)">
<path d="M78.363 166.309L132.665 17.533C133.833 14.3174 135.554 11.2901 137.891 8.80297C142.036 4.39397 149.259 -0.0150287 160.124 4.20555C160.124 4.20555 172.283 8.68992 168.641 20.6106C168.641 20.6106 165.664 28.9135 159.546 27.9714C158.077 27.7453 156.758 26.9414 155.715 25.8863C154.761 24.9065 153.517 23.4117 152.6 21.4396C151.758 19.6433 150.075 18.9399 148.555 18.6887C146.382 18.337 144.109 18.8394 142.488 20.3216C141.106 21.5778 139.926 23.7257 140.767 27.268C142.463 34.34 148.518 38.2717 148.518 38.2717C148.518 38.2717 151.947 41.1356 156.708 40.7839C161.468 40.4322 215.695 32.7698 215.695 32.7698C215.695 32.7698 219.438 31.9408 224.011 33.222C228.583 34.5033 263.755 43.0826 263.755 43.0826C263.755 43.0826 270.864 45.2683 265.94 50.5817C261.016 55.8951 250.276 56.7116 250.276 56.7116C250.276 56.7116 226.963 57.4527 206.94 54.8525C186.917 52.2398 178.828 67.8911 178.828 67.8911C178.828 67.8911 171.442 78.5556 179.87 95.2998C180.988 97.5105 182.37 99.5832 183.865 101.568C187.294 106.14 195.296 118.902 186.993 129.265C183.099 134.127 176.868 136.438 170.663 135.973C167.711 135.747 163.855 135.219 158.868 134.152C157.336 133.825 155.728 133.75 154.208 134.114C150.992 134.88 146.998 137.594 150.465 146.751L153.542 155.267C153.542 155.267 154.484 159.061 159.936 159.174C165.387 159.287 253.203 161.661 253.203 161.661C253.203 161.661 258.202 161.711 256.532 155.531C254.861 149.351 251.608 143.698 260.539 141.563C263.642 140.822 266.907 140.897 269.972 141.739C276.554 143.548 286.754 149.15 281.026 166.359C281.026 166.359 275.06 181.118 258.918 181.269C242.777 181.42 4.41488 182.5 4.41488 182.5C4.41488 182.5 0.483204 182.01 3.88731 177.702C5.20624 176.018 7.44214 174.699 9.67804 173.695C13.145 172.15 16.9008 171.371 20.6943 171.22L75.2604 169.047C75.2604 169.047 77.7726 168.494 78.3755 166.359L78.363 166.309Z" stroke="black" stroke-width="5" stroke-miterlimit="10"/>
<path id="start-point" d="M109.98 100.225L111.655 95.5138L103.174 92.5L101.5 97.2113L109.98 100.225Z" fill="black"/>
<g id="checker-flag">
<path d="M129.875 102.463L131.433 98.1329L127.044 96.5546L125.486 100.884L129.875 102.463Z" fill="white"/>
<path d="M123.934 105.219L125.493 100.89L121.104 99.3105L119.546 103.641L123.934 105.219Z" fill="white"/>
<path d="M126.758 111.108L128.315 106.777L123.926 105.198L122.369 109.529L126.758 111.108Z" fill="white"/>
<path d="M120.812 113.87L122.37 109.54L117.981 107.96L116.423 112.291L120.812 113.87Z" fill="white"/>
<path d="M127.053 96.5733L128.611 92.2428L124.222 90.6645L122.664 94.9941L127.053 96.5733Z" fill="white"/>
<path d="M131.415 98.1502L132.973 93.8198L128.584 92.2406L127.026 96.5711L131.415 98.1502Z" fill="black"/>
<path d="M128.313 106.801L129.871 102.471L125.482 100.892L123.924 105.222L128.313 106.801Z" fill="black"/>
<path d="M122.389 109.546L123.947 105.216L119.558 103.637L118 107.967L122.389 109.546Z" fill="black"/>
<path d="M125.491 100.899L127.049 96.5684L122.66 94.9892L121.102 99.3197L125.491 100.899Z" fill="black"/>
<path d="M125.211 115.45L126.769 111.121L122.38 109.541L120.822 113.872L125.211 115.45Z" fill="black"/>
<path d="M121.09 99.312L122.648 94.9816L118.26 93.4033L116.702 97.7337L121.09 99.312Z" fill="white"/>
<path d="M117.99 107.965L119.548 103.634L115.16 102.056L113.602 106.386L117.99 107.965Z" fill="white"/>
<path d="M122.672 94.9922L124.23 90.6617L119.842 89.0834L118.284 93.4139L122.672 94.9922Z" fill="black"/>
<path d="M119.549 103.659L121.107 99.3287L116.718 97.7504L115.16 102.08L119.549 103.659Z" fill="black"/>
<path d="M116.443 112.292L118.002 107.962L113.613 106.383L112.055 110.714L116.443 112.292Z" fill="black"/>
</g>
</g>
<defs>
<clipPath id="clip0_19_542">
<rect width="286" height="185" fill="white"/>
</clipPath>
</defs>
</svg>
