<svg width="269" height="173" viewBox="0 0 269 173" fill="none" xmlns="http://www.w3.org/2000/svg">
<g clip-path="url(#clip0_19_359)">
<path d="M200.012 3.69186L116.785 39.9641C112.033 42.4658 101.326 48.4831 96.5147 52.5383C75.3789 70.2486 73.0113 73.4022 63.9265 75.4513C55.7861 77.2742 53.0324 82.0244 52.2476 83.9139C51.7687 85.0981 51.2894 86.2691 50.7174 87.4134C47.8177 93.2414 44.6921 96.9538 42.6171 99.003C40.0367 101.558 37.4962 104.152 35.0754 106.867L26.3633 116.62C22.7054 120.718 19.3938 125.123 16.4808 129.793L14.6844 132.667C12.7424 135.781 11.0664 139.054 9.69637 142.46C7.03611 149.087 2.82006 160.051 2.52743 163.817C2.10179 169.352 6.76983 165.4 6.76983 165.4L61.1065 122.967C61.9178 122.328 62.7153 121.65 63.5134 120.985C64.1918 120.426 65.2828 119.734 66.1607 120.199C67.5307 120.918 67.6766 122.275 67.6766 122.275L67.8636 125.855C67.8636 125.855 67.4905 129.088 71.1084 128.05C74.7397 126.999 81.856 125.868 81.856 125.868C100.332 122.847 114.618 116.128 124.846 108.384C134.383 101.159 143.321 103.221 143.321 103.221C166.838 107.745 177.638 115.795 180.91 119.694C184.183 123.592 197.126 141.822 200.145 145.973C203.165 150.125 212.968 158.68 221.268 163.457C229.568 168.234 239.624 170.376 246.035 170.496C252.446 170.616 255.572 164.788 255.572 164.788L263.446 149.965C265.042 146.958 264.217 143.166 261.411 141.263C260.945 140.944 260.613 140.797 260.613 140.797C260.613 140.797 242.895 132.681 240.953 131.829C238.479 130.751 233.252 128.915 231.802 124.271C230.086 118.776 232.281 116.341 233.625 114.052C234.981 111.763 235.18 106.321 233.318 104.139C231.456 101.97 230.113 100.666 225.284 98.8965C220.456 97.1401 190.301 90.2609 181.403 87.2138C172.651 84.2199 171.72 75.6243 171.72 75.6243C171.348 73.136 171.121 70.6212 171.041 68.1064L170.922 64.5936C170.868 62.8372 171.029 61.0808 171.561 59.4042C173.742 52.6048 179.262 51.1545 179.262 51.1545C179.262 51.1545 211.744 41.4943 221.933 36.2783C232.122 31.0624 236.484 28.5342 239.304 28.8003C242.124 29.0665 244.04 31.2487 244.04 31.2487L255.278 44.5414C256.17 45.5925 257.353 46.4042 258.71 46.6837C260.28 47.0163 262.355 46.8167 264.39 44.701C268.461 40.483 265.388 36.3848 265.388 36.3848C265.388 36.3848 240.036 7.90987 236.91 5.12891C233.784 2.34795 229.048 4.25073 229.048 4.25073C229.048 4.25073 223.516 6.84539 218.834 8.60178C214.138 10.3582 211.797 7.7236 211.797 7.7236L208.578 4.07774C204.814 0.764542 200.012 3.69186 200.012 3.69186Z" stroke="black" stroke-width="5" stroke-miterlimit="10"/>
<path d="M61.2111 157.055L64.8433 154.229L61.979 150.547L58.3469 153.373L61.2111 157.055Z" fill="white"/>
<path d="M54.717 156.207L58.3491 153.381L55.4849 149.7L51.8528 152.526L54.717 156.207Z" fill="white"/>
<path d="M53.9538 162.691L57.5859 159.865L54.7218 156.184L51.0896 159.01L53.9538 162.691Z" fill="white"/>
<path d="M47.4538 161.846L51.0859 159.02L48.2217 155.338L44.5896 158.164L47.4538 161.846Z" fill="white"/>
<path d="M61.9758 150.568L65.6079 147.742L62.7437 144.061L59.1115 146.887L61.9758 150.568Z" fill="white"/>
<path d="M64.819 154.232L68.4512 151.406L65.587 147.725L61.9549 150.551L64.819 154.232Z" fill="black"/>
<path d="M57.572 159.885L61.2041 157.059L58.3399 153.377L54.7077 156.204L57.572 159.885Z" fill="black"/>
<path d="M51.0978 159.037L54.73 156.211L51.8658 152.53L48.2336 155.356L51.0978 159.037Z" fill="black"/>
<path d="M58.3439 153.389L61.9761 150.562L59.1119 146.881L55.4797 149.707L58.3439 153.389Z" fill="black"/>
<path d="M50.3244 165.535L53.9565 162.709L51.0923 159.028L47.4602 161.854L50.3244 165.535Z" fill="black"/>
<path d="M55.4743 149.693L59.1064 146.867L56.2422 143.186L52.6101 146.012L55.4743 149.693Z" fill="white"/>
<path d="M48.2272 155.348L51.8594 152.521L48.9952 148.84L45.363 151.666L48.2272 155.348Z" fill="white"/>
<path d="M59.1208 146.89L62.7529 144.064L59.8887 140.383L56.2566 143.209L59.1208 146.89Z" fill="black"/>
<path d="M51.8464 152.543L55.4785 149.717L52.6143 146.036L48.9822 148.862L51.8464 152.543Z" fill="black"/>
<path d="M44.6052 158.178L48.2373 155.352L45.3731 151.67L41.7409 154.496L44.6052 158.178Z" fill="black"/>
<path d="M45.1486 144.195L49.0938 141.123L43.5646 134.022L39.6194 137.094L45.1486 144.195Z" fill="black"/>
</g>
<defs>
<clipPath id="clip0_19_359">
<rect width="269" height="173" fill="white"/>
</clipPath>
</defs>
</svg>
