<svg width="328" height="192" viewBox="0 0 328 192" fill="none" xmlns="http://www.w3.org/2000/svg">
<g clip-path="url(#clip0_19_395)">
<path d="M8.21725 138.541L15.37 144.09C16.6726 145.101 18.2402 145.715 19.9046 145.86H19.9764C21.9182 146.016 23.3659 147.738 23.173 149.675C21.9548 162.11 25.947 165.649 29.5531 167.924C31.1692 168.947 33.1596 169.79 34.7637 170.837C41.9278 175.519 47.8124 183.175 51.2859 188.411C52.5161 190.265 55.3629 189.639 55.6885 187.448C57.582 174.713 61.8753 146.763 65.3006 132.077C68.9188 116.597 78.7728 95.3639 82.6201 87.4074C83.4161 85.7703 85.5148 85.2888 86.9379 86.4323L110.818 105.62C113.302 107.762 114.375 108.737 116.112 110.386C116.45 110.699 117.716 111.771 118.066 112.047C123.964 116.718 127.655 117.332 133.71 117.572C159.664 118.632 206.472 121.749 221.801 122.785C224.635 122.977 226.817 125.324 226.817 128.406V129.537C226.817 135.749 231.763 140.828 237.986 140.973C252.664 141.322 273.951 142.634 284.275 143.308C288.014 143.549 291.559 141.695 293.501 138.505L300.315 127.286C301.268 125.71 301.666 123.844 301.437 122.014C300.754 116.648 299.988 110.727 299.173 104.5C294.921 72.0082 289.349 31.1783 287.447 17.279L287.422 17.291C287.048 14.5225 284.625 12.4882 281.815 12.5845L278.703 12.6928C275.917 12.8012 273.191 11.8743 271.057 10.0928L269.79 9.04557C267.8 7.38445 265.87 5.66314 264 3.85757C261.082 1.02884 256.173 2.90664 255.896 6.96315L254.955 20.6614C254.702 24.2846 255.232 27.9198 256.511 31.3263L261.082 43.532C264.712 53.2219 266.956 63.3812 267.728 73.7091C268.09 78.4397 265.002 82.7971 260.395 83.9166C260.335 83.9286 260.286 83.9407 260.225 83.9527C258.139 84.4342 255.993 84.5907 253.858 84.5064C232.258 83.6759 196.762 80.9675 179.817 79.6314C172.581 79.0536 165.525 77.0554 159.072 73.7211C142.911 65.3553 120.31 50.983 109.89 44.2301C106.537 42.0635 102.086 42.894 99.7218 46.1079C98.2745 48.058 96.8033 50.1885 95.3922 52.271C91.5328 57.9886 88.1439 64.0072 85.0323 70.1581C82.994 74.1786 81.3773 76.0925 80.2315 77.0073C79.3632 77.7054 78.0978 77.549 77.3742 76.7064C66.3628 63.8748 59.6813 58.2173 55.1585 54.7747C52.3725 52.6561 48.5001 52.7284 45.7985 54.9913L45.6784 55.0876C42.4823 57.7719 39.8647 61.0701 38.0074 64.8137C31.2896 78.3434 17.4923 103.104 11.3655 114.021C9.35137 117.609 6.98706 120.979 4.29752 124.097C2.47636 126.215 1.99478 129.164 3.05612 131.752C4.15364 134.424 5.92572 136.772 8.21725 138.541Z" stroke="black" stroke-width="5" stroke-linecap="round" stroke-linejoin="round"/>
<path d="M325.66 95.8458L325.029 91.2871L320.409 91.9263L321.04 96.485L325.66 95.8458Z" fill="white"/>
<path d="M321.678 101.045L321.047 96.4863L316.427 97.1256L317.058 101.684L321.678 101.045Z" fill="white"/>
<path d="M326.912 104.949L326.281 100.391L321.661 101.03L322.292 105.588L326.912 104.949Z" fill="white"/>
<path d="M322.929 110.154L322.298 105.596L317.678 106.235L318.309 110.794L322.929 110.154Z" fill="white"/>
<path d="M320.426 91.9395L319.795 87.3809L315.175 88.0201L315.805 92.5787L320.426 91.9395Z" fill="white"/>
<path d="M325.021 91.3106L324.391 86.752L319.77 87.3911L320.401 91.9498L325.021 91.3106Z" fill="black"/>
<path d="M326.291 100.412L325.66 95.8535L321.04 96.4927L321.671 101.051L326.291 100.412Z" fill="black"/>
<path d="M322.318 105.594L321.688 101.035L317.067 101.674L317.698 106.233L322.318 105.594Z" fill="black"/>
<path d="M321.051 96.4942L320.42 91.9355L315.8 92.5748L316.431 97.1334L321.051 96.4942Z" fill="black"/>
<path d="M327.558 109.514L326.928 104.955L322.308 105.594L322.938 110.153L327.558 109.514Z" fill="black"/>
<path d="M316.417 97.1329L315.787 92.5742L311.166 93.2134L311.797 97.7721L316.417 97.1329Z" fill="white"/>
<path d="M317.689 106.234L317.058 101.676L312.438 102.315L313.069 106.874L317.689 106.234Z" fill="white"/>
<path d="M315.813 92.5723L315.182 88.0137L310.562 88.6529L311.193 93.2115L315.813 92.5723Z" fill="black"/>
<path d="M317.07 101.699L316.439 97.1406L311.819 97.7799L312.449 102.339L317.07 101.699Z" fill="black"/>
<path d="M318.327 110.787L317.697 106.229L313.077 106.868L313.707 111.426L318.327 110.787Z" fill="black"/>
<path d="M306.49 103.324L305.803 98.3711L296.889 99.6075L297.575 104.56L306.49 103.324Z" fill="black"/>
</g>
<defs>
<clipPath id="clip0_19_395">
<rect width="328" height="192" fill="white"/>
</clipPath>
</defs>
</svg>
