<svg width="337" height="139" viewBox="0 0 337 139" fill="none" xmlns="http://www.w3.org/2000/svg">
<g clip-path="url(#clip0_123_4)">
<path d="M303.698 87.507C303.698 87.507 285.8 100.022 266.518 104.632C247.237 109.231 227.006 97.1105 215.786 93.8472C204.566 90.5839 180.94 78.5769 167.202 65.5339C167.202 65.5339 164.807 62.9025 162.701 65.6064L162.666 65.6512C160.587 68.3104 159.873 69.2241 156.26 65.8965C152.626 62.5503 154.619 62.6021 153.742 60.1986C152.864 57.7848 103.742 20.3031 103.742 20.3031C103.742 20.3031 101.637 18.0343 97.787 19.35C93.9369 20.6657 74.6555 24.0326 63.3427 41.7582C63.3427 41.7582 61.3713 44.5657 63.3427 49.756C65.3245 54.9462 48.5827 75.6554 48.5827 75.6554L45.7855 79.157C45.4552 79.5611 45.1448 79.9858 44.8249 80.4106C44.381 81.0011 43.4622 82.1303 41.821 83.6946C41.3772 84.1194 40.5205 84.8031 38.7245 84.1712L34.9263 82.4618C33.6464 81.7884 32.6664 82.669 32.6664 82.669C31.8303 83.2388 30.0134 86.9269 30.0134 86.9269C28.2483 90.646 21.4569 103.399 20.7963 110.858C20.1769 117.82 21.0028 123.321 23.7174 129.267C24.3883 130.738 24.5941 132.437 24.0057 133.95C23.7477 134.623 23.3251 135.701 22.6026 136.188C20.1253 137.866 9.40018 132.634 3.02126 124.036C3.02126 124.036 1.52515 121.529 3.59985 119.28C5.67455 117.032 7.19118 118.317 7.80017 113.034C8.61685 105.951 15.4202 82.0264 32.8892 56.2806C37.1661 49.8257 49.0978 34.0242 62.6099 22.4579C67.0483 18.5419 71.8991 15.1129 77.0807 12.2536C78.1026 11.6838 79.1762 11.114 80.3426 10.5546C84.2236 8.67944 87.8876 6.37957 91.1906 3.60315L91.8307 3.06443C91.8307 3.06443 93.4516 1.55191 95.8153 3.47883L96.404 3.94502C109.379 14.139 122.941 23.5457 136.948 32.2376C145.401 37.4796 155.011 43.8198 161.669 49.3519C161.669 49.3519 164.353 51.2581 173.952 54.4697C183.551 57.6812 186.834 59.4216 189.776 61.504C192.707 63.5863 207.24 74.7852 207.24 74.7852C207.24 74.7852 219.44 85.5594 234.645 75.9351C234.645 75.9351 238.918 73.3245 241.643 66.1762C242.892 62.9232 243.407 59.4424 243.397 55.9615C243.387 53.6512 243.325 50.6469 243.109 48.3263C242.696 43.9234 246.257 41.406 249.56 40.1421C249.56 40.1421 256.702 37.1792 265.011 36.827C273.321 36.4747 304.307 31.8335 304.307 31.8335C304.307 31.8335 307.95 30.9633 309.705 32.5484C309.705 32.5484 313.111 35.1176 311.903 39.8209C311.903 39.8209 311.522 42.5456 307.713 45.6017C304.792 47.943 304.648 54.2003 304.648 54.2003C304.648 54.2003 304.565 58.5514 301.819 63.8763C301.819 63.8763 300.498 67.2744 304.595 68.0721C304.595 68.0721 308.559 68.559 308.167 62.8507C307.775 57.1529 309.457 50.9888 309.457 50.9888C309.457 50.9888 309.809 47.6944 313.38 47.1246C314.701 46.907 316.043 47.2075 317.23 47.798L328.253 53.3094C328.253 53.3094 330.442 54.4904 333.374 57.3393C334.127 58.0749 334.58 59.1108 334.488 60.1572C334.436 60.7891 334.199 61.4625 333.6 62.053C331.918 63.7002 303.698 87.507 303.698 87.507Z" stroke="black" stroke-width="5" stroke-linecap="round" stroke-linejoin="round"/>
<path d="M10.7219 40.9092L8.12305 44.7072L11.9723 47.3412L14.5712 43.5432L10.7219 40.9092Z" fill="white"/>
<path d="M17.1658 39.7393L14.5669 43.5373L18.4162 46.1712L21.0151 42.3732L17.1658 39.7393Z" fill="white"/>
<path d="M15.9172 33.3291L13.3184 37.1272L17.1676 39.7611L19.7665 35.9631L15.9172 33.3291Z" fill="white"/>
<path d="M22.3665 32.1553L19.7676 35.9533L23.6168 38.5872L26.2157 34.7893L22.3665 32.1553Z" fill="white"/>
<path d="M11.969 47.3193L9.37012 51.1173L13.2194 53.7512L15.8183 49.9532L11.969 47.3193Z" fill="white"/>
<path d="M8.14428 44.6943L5.54541 48.4923L9.39466 51.1262L11.9935 47.3282L8.14428 44.6943Z" fill="black"/>
<path d="M13.3259 37.1045L10.7271 40.9024L14.5763 43.5364L17.1751 39.7384L13.3259 37.1045Z" fill="black"/>
<path d="M19.7508 35.9404L17.1519 39.7384L21.0011 42.3723L23.6 38.5743L19.7508 35.9404Z" fill="black"/>
<path d="M14.5696 43.5283L11.9707 47.3263L15.82 49.9602L18.4189 46.1622L14.5696 43.5283Z" fill="black"/>
<path d="M18.5086 29.5166L15.9097 33.3146L19.7589 35.9485L22.3578 32.1505L18.5086 29.5166Z" fill="black"/>
<path d="M18.428 46.1729L15.8291 49.9709L19.6784 52.6048L22.2773 48.8068L18.428 46.1729Z" fill="white"/>
<path d="M23.6087 38.5811L21.0098 42.3791L24.859 45.013L27.4579 41.215L23.6087 38.5811Z" fill="white"/>
<path d="M15.8084 49.9541L13.2095 53.7521L17.0587 56.386L19.6576 52.588L15.8084 49.9541Z" fill="black"/>
<path d="M21.0159 42.3545L18.417 46.1524L22.2663 48.7864L24.8652 44.9884L21.0159 42.3545Z" fill="black"/>
<path d="M26.1966 34.7822L23.5977 38.5802L27.4469 41.2141L30.0458 37.4161L26.1966 34.7822Z" fill="black"/>
<path d="M30.3785 48.4724L27.5062 52.565L34.8731 57.7351L37.7454 53.6424L30.3785 48.4724Z" fill="black"/>
</g>
<defs>
<clipPath id="clip0_123_4">
<rect width="337" height="139" fill="white"/>
</clipPath>
</defs>
</svg>
