<svg width="317" height="177" viewBox="0 0 317 177" fill="none" xmlns="http://www.w3.org/2000/svg">
<g clip-path="url(#clip0_112_710)">
<path d="M250.5 152.774L288.914 174.099C290.678 175.03 292.068 174.155 292.694 173.349L293.172 172.69C300.959 161.593 308.154 149.293 314.109 137.117L313.904 137.537C315.088 135.538 314.45 132.971 312.458 131.767C296.712 122.227 233.434 83.9955 213.726 74.1367C211.677 73.1145 209.183 73.7732 207.897 75.67C204.64 80.4631 199.016 89.8903 194.849 96.3643C193.904 97.8409 191.764 98.7041 190.034 97.7727C185.73 95.433 177.851 91.2192 171.498 88.1752C165.237 85.1767 157.505 82.6211 153.168 81.2809C150.139 80.3495 147.567 81.5989 146.406 85.029C146.406 85.0631 146.143 85.7787 146.132 85.8127C145.586 87.7095 143.503 87.3574 142.307 87.0508C141.875 86.9372 140.565 86.5056 140.178 86.392L103.381 76.0108C99.749 74.9885 97.4947 74.6705 94.1816 74.273C93.0545 74.1367 92.1213 73.353 91.7912 72.274L91.7222 72.0241C91.4831 71.2404 91.6201 70.3885 92.0869 69.7071C98.1894 60.8024 99.8061 58.4967 106.034 49.2172C106.614 48.3653 106.546 47.2182 105.875 46.4345C105.362 45.8325 105.077 45.0829 105.043 44.2992C104.998 42.834 104.451 41.4256 103.518 40.3011L102.31 38.8587C100.955 37.2345 100.808 34.9288 101.947 33.157L103.757 30.3288C104.645 28.9318 104.269 27.0918 102.892 26.1718C95.8557 21.4582 75.2711 8.10115 61.1535 3.433C58.5918 2.59251 55.8702 2.25178 53.2061 2.69474C52.6596 2.7856 52.1018 2.89919 51.5439 3.0582C49.5174 3.6261 40.2047 7.26066 33.7835 9.5777C29.9467 10.9634 26.4283 13.1101 23.4568 15.9155C19.3012 19.8454 12.5497 25.8083 5.47955 30.2493C3.95394 31.2034 1.8705 31.8849 2.67885 35.2241C4.72818 41.5278 8.57694 70.8202 9.5333 77.5328C9.5333 77.5328 9.84074 82.5871 13.5637 82.1214C15.3512 81.8942 25.631 80.0088 32.7695 78.5891C36.4583 77.8621 40.2499 77.794 43.9501 78.4187L69.0664 82.6211C71.4004 83.0073 73.7903 82.837 76.0332 82.11L87.9998 78.237C91.0624 77.2488 94.3414 77.1693 97.4382 78.0325L130.158 87.0394C140.758 89.9584 150.914 94.2631 160.375 99.8399L243.738 149.02L250.5 152.774Z" stroke="black" stroke-width="5" stroke-miterlimit="10"/>
<path d="M263.725 129.024L259.71 126.775L257.431 130.845L261.446 133.094L263.725 129.024Z" fill="white"/>
<path d="M265.467 135.339L261.452 133.09L259.173 137.159L263.188 139.408L265.467 135.339Z" fill="white"/>
<path d="M271.739 133.522L267.724 131.273L265.445 135.343L269.46 137.592L271.739 133.522Z" fill="white"/>
<path d="M273.485 139.841L269.47 137.592L267.191 141.661L271.206 143.91L273.485 139.841Z" fill="white"/>
<path d="M257.452 130.841L253.437 128.592L251.157 132.661L255.172 134.91L257.452 130.841Z" fill="white"/>
<path d="M259.724 126.796L255.708 124.547L253.429 128.616L257.444 130.865L259.724 126.796Z" fill="black"/>
<path d="M267.747 131.278L263.732 129.029L261.453 133.099L265.468 135.348L267.747 131.278Z" fill="black"/>
<path d="M269.48 137.573L265.465 135.324L263.186 139.394L267.201 141.642L269.48 137.573Z" fill="black"/>
<path d="M261.46 133.091L257.445 130.842L255.166 134.911L259.181 137.16L261.46 133.091Z" fill="black"/>
<path d="M275.769 135.763L271.753 133.514L269.474 137.583L273.489 139.832L275.769 135.763Z" fill="black"/>
<path d="M259.172 137.171L255.157 134.922L252.878 138.991L256.893 141.24L259.172 137.171Z" fill="white"/>
<path d="M267.197 141.651L263.182 139.402L260.903 143.472L264.918 145.721L267.197 141.651Z" fill="white"/>
<path d="M255.171 134.899L251.156 132.65L248.877 136.72L252.892 138.969L255.171 134.899Z" fill="black"/>
<path d="M263.207 139.407L259.191 137.158L256.912 141.228L260.927 143.476L263.207 139.407Z" fill="black"/>
<path d="M271.211 143.89L267.196 141.641L264.917 145.71L268.932 147.959L271.211 143.89Z" fill="black"/>
<path d="M258.115 148.821L253.752 146.379L249.357 154.233L253.72 156.674L258.115 148.821Z" fill="black"/>
</g>
<defs>
<clipPath id="clip0_112_710">
<rect width="317" height="177" fill="white"/>
</clipPath>
</defs>
</svg>
