<svg width="24" height="24" viewBox="0 0 24 24" fill="none" xmlns="http://www.w3.org/2000/svg">
<path d="M11.2361 1.39648C11.7264 1.20118 12.2731 1.20129 12.7634 1.39648C13.1642 1.5562 13.4578 1.82004 13.6794 2.07129C13.8894 2.30939 14.0816 2.59437 14.2205 2.78613C14.5458 3.23546 14.7119 3.35904 14.9304 3.375C15.1608 3.39157 15.4046 3.30534 15.8816 3.14355C16.2824 3.00763 16.8952 2.80399 17.5535 2.96777C18.0852 3.1003 18.5412 3.43903 18.8259 3.90625C19.0474 4.26995 19.1268 4.65234 19.158 4.98242C19.1874 5.29454 19.178 5.63768 19.1794 5.87109C19.1829 6.41711 19.2465 6.61753 19.4187 6.76172C19.5962 6.90996 19.8429 6.98452 20.3162 7.13477C20.7151 7.26142 21.3177 7.45723 21.7498 7.96582C22.1122 8.39284 22.2892 8.94795 22.2429 9.50586C22.208 9.92795 22.0484 10.282 21.8816 10.5664C21.7242 10.8346 21.5166 11.1066 21.3835 11.2949C21.0721 11.7356 21.0081 11.9354 21.0652 12.1553C21.1244 12.3829 21.2819 12.5897 21.574 12.9883C21.8213 13.3257 22.1883 13.8346 22.2429 14.4941L22.2498 14.7031C22.242 15.1889 22.0669 15.6606 21.7498 16.0342C21.4746 16.358 21.1371 16.5526 20.8347 16.6846C20.5495 16.809 20.222 16.9062 20.0037 16.9795C19.4919 17.1514 19.3266 17.2728 19.2458 17.4795C19.1593 17.7012 19.1665 17.9649 19.1707 18.4648C19.1742 18.888 19.1737 19.5225 18.8259 20.0938C18.5412 20.5609 18.0852 20.8997 17.5535 21.0322C17.1382 21.1355 16.7484 21.0941 16.4246 21.0215C16.1182 20.9528 15.7965 20.8355 15.575 20.7637C15.0549 20.5952 14.8526 20.5957 14.6697 20.7109C14.4694 20.8371 14.3206 21.055 14.0261 21.4717C13.7784 21.8222 13.3988 22.3492 12.7625 22.6025C12.2722 22.7977 11.7263 22.7989 11.2361 22.6035V22.6025C10.6003 22.349 10.2209 21.822 9.97339 21.4717C9.67886 21.0549 9.53024 20.8371 9.32983 20.7109C9.1531 20.5998 8.94776 20.5983 8.41968 20.7666C8.196 20.8379 7.87308 20.9526 7.56812 21.0205C7.2467 21.092 6.85795 21.1348 6.44604 21.0322C5.91437 20.8996 5.45818 20.5609 5.17358 20.0938C4.95221 19.7301 4.8727 19.3476 4.84155 19.0176C4.81212 18.7055 4.82156 18.3623 4.82007 18.1289C4.81657 17.5826 4.75319 17.3825 4.58081 17.2383C4.40333 17.0902 4.15665 17.0155 3.68335 16.8652C3.28438 16.7386 2.68166 16.5428 2.24976 16.0342C1.88739 15.6072 1.71053 15.0517 1.75659 14.4941C1.81121 13.8347 2.17824 13.3258 2.42554 12.9883C2.71756 12.5897 2.87505 12.383 2.93433 12.1553C2.98992 11.9415 2.92574 11.7396 2.61206 11.292C2.47882 11.1019 2.27234 10.8279 2.11597 10.5605C1.95071 10.2779 1.7913 9.92474 1.75659 9.50586C1.71052 8.94827 1.88744 8.39284 2.24976 7.96582C2.5248 7.64186 2.86242 7.4475 3.16479 7.31543C3.44996 7.19092 3.77738 7.09383 3.99585 7.02051C4.50774 6.84863 4.6728 6.72716 4.75366 6.52051L4.78198 6.43555C4.83873 6.22969 4.83249 5.97298 4.82886 5.53516C4.82535 5.11202 4.82591 4.47742 5.17358 3.90625C5.4582 3.43905 5.91441 3.10039 6.44604 2.96777C7.10428 2.80385 7.71703 3.0076 8.11792 3.14355C8.59493 3.30533 8.83882 3.39144 9.06909 3.375C9.28775 3.35918 9.45363 3.23558 9.77905 2.78613C9.91783 2.59444 10.1101 2.30942 10.3201 2.07129C10.5416 1.82007 10.8354 1.55626 11.2361 1.39648ZM16.5271 9.4668C16.2328 9.17601 15.7578 9.17861 15.4666 9.47266L11.03 13.9512L8.51538 11.5703C8.21453 11.2859 7.73945 11.2989 7.45483 11.5996C7.17043 11.9003 7.18369 12.3755 7.48413 12.6602L10.1765 15.209C10.6698 15.6758 11.4465 15.6631 11.9246 15.1807L16.533 10.5273C16.8241 10.233 16.8213 9.75816 16.5271 9.4668Z" fill="white"/>
</svg>
