<svg width="26" height="24" viewBox="0 0 26 24" fill="none" xmlns="http://www.w3.org/2000/svg">
<path fill-rule="evenodd" clip-rule="evenodd" d="M21.5942 12.2044C21.5942 11.5663 21.5343 10.9526 21.423 10.3635H12.5547V13.8449H17.6223C17.404 14.9699 16.7406 15.9231 15.7434 16.5613V18.8194H18.7865C20.567 17.2526 21.5942 14.9453 21.5942 12.2044Z" fill="#4285F4"/>
<path fill-rule="evenodd" clip-rule="evenodd" d="M12.5548 21C15.0972 21 17.2286 20.1941 18.7866 18.8195L15.7434 16.5613C14.9003 17.1013 13.8217 17.4204 12.5548 17.4204C10.1023 17.4204 8.02645 15.8372 7.286 13.71H4.14014V16.0418C5.68953 18.9831 8.87391 21 12.5548 21Z" fill="#34A853"/>
<path fill-rule="evenodd" clip-rule="evenodd" d="M7.28607 13.7101C7.09775 13.1701 6.99075 12.5933 6.99075 12.0001C6.99075 11.4069 7.09775 10.8301 7.28607 10.2901V7.95825H4.14021C3.50248 9.17325 3.13867 10.5478 3.13867 12.0001C3.13867 13.4523 3.50248 14.8269 4.14021 16.0419L7.28607 13.7101Z" fill="#FBBC05"/>
<path fill-rule="evenodd" clip-rule="evenodd" d="M12.5548 6.57955C13.9372 6.57955 15.1785 7.03364 16.1543 7.92546L18.8551 5.34409C17.2244 3.89182 15.0929 3 12.5548 3C8.87391 3 5.68953 5.01682 4.14014 7.95818L7.286 10.29C8.02645 8.16273 10.1023 6.57955 12.5548 6.57955Z" fill="#EA4335"/>
</svg>
