<svg width="29" height="27" viewBox="0 0 29 27" fill="none" xmlns="http://www.w3.org/2000/svg">
<path d="M14.4026 7.85927C15.3202 7.85927 16.4705 7.2663 17.1555 6.47569C17.7759 5.7592 18.2282 4.75858 18.2282 3.75795C18.2282 3.62207 18.2153 3.48618 18.1895 3.375C17.1684 3.41206 15.9406 4.02973 15.2039 4.8574C14.6223 5.48742 14.0924 6.47569 14.0924 7.48867C14.0924 7.63691 14.1182 7.78515 14.1311 7.83456C14.1958 7.84691 14.2992 7.85927 14.4026 7.85927ZM11.1714 22.8068C12.4251 22.8068 12.9809 22.0039 14.5447 22.0039C16.1345 22.0039 16.4834 22.7821 17.8793 22.7821C19.2493 22.7821 20.1669 21.5715 21.0329 20.3856C22.0022 19.0267 22.4029 17.6925 22.4287 17.6308C22.3383 17.6061 19.7146 16.5807 19.7146 13.7024C19.7146 11.207 21.7825 10.0829 21.8988 9.9964C20.5288 8.11869 18.448 8.06927 17.8793 8.06927C16.3413 8.06927 15.0876 8.95871 14.2992 8.95871C13.4461 8.95871 12.3217 8.11869 10.9905 8.11869C8.45725 8.11869 5.88525 10.1199 5.88525 13.9001C5.88525 16.2472 6.84167 18.7302 8.01781 20.3362C9.02593 21.695 9.90481 22.8068 11.1714 22.8068Z" fill="white"/>
</svg>
